# xmcd
#
# Track frame offsets:
#	150
#	18150
#	33483
#	47645
#	62267
#	79309
#	103678
#	122637
#	138440
#	155396
#	170207
#	187342
#
# Disc length: 2695 seconds
#
# Revision: 0
# Processed by: cddbd v1.5.2PL0 Copyright (c) Steve Scherf et al.
# Submitted via: dBpowerAMP V4.0
#
DISCID=a00a850c
DTITLE=Bob Walsh - The Only Man
DYEAR=2007
DGENRE=Blues
TTITLE0=Low Tide Again
TTITLE1=When My Time Has Come
TTITLE2=The Only Soul
TTITLE3=Just My Luck
TTITLE4=Y'a Un Blues Pour Chaque Peine
TTITLE5=I'm A Bluesman
TTITLE6=Sad Clown
TTITLE7=In July
TTITLE8=Brand New Cadillac
TTITLE9=L'exces me Relaxe
TTITLE10=Emerald Wall (Song For Maddy)
TTITLE11=Kind Of Man
EXTD=
EXTT0=
EXTT1=
EXTT2=
EXTT3=
EXTT4=
EXTT5=
EXTT6=
EXTT7=
EXTT8=
EXTT9=
EXTT10=
EXTT11=
PLAYORDER=
